<svg xmlns="http://www.w3.org/2000/svg" version="1.0" preserveAspectRatio="xMidYMid meet" viewBox="100.78 130.11 751.89 145.79">

<g transform="translate(0.000000,434.000000) scale(0.100000,-0.100000)" fill="#000000" stroke="none">
<path d="M1038 3011 c-44 -40 -48 17 43 -756 11 -93 24 -215 30 -270 14 -135 23 -166 59 -200 29 -28 38 -30 120 -33 48 -2 204 1 345 7 274 12 289 10 283 -33 -3 -18 -16 -24 -91 -38 -184 -36 -188 -74 -11 -99 196 -28 608 23 592 73 -6 19 -68 37 -156 45 l-77 8 0 30 0 30 200 7 c377 14 405 17 432 44 20 20 23 33 23 93 0 65 2 71 23 76 12 3 51 12 87 19 l65 14 -125 -1 -125 -2 3 -71 4 -72 -104 -6 c-218 -11 -1448 -41 -1448 -35 0 3 -11 108 -25 234 -81 733 -94 870 -88 876 5 4 91 4 193 -1 102 -5 298 -14 435 -20 138 -6 400 -17 583 -25 183 -8 336 -17 341 -19 5 -3 16 -77 26 -165 l18 -159 51 -4 c28 -2 60 -1 71 3 19 7 19 8 -2 8 -46 2 -59 29 -73 162 -15 145 -35 201 -80 224 -32 17 -50 18 -650 45 -135 6 -380 17 -546 25 -406 20 -387 21 -426 -14z"/>
<path d="M2300 2719 l0 -136 107 -6 c58 -4 134 -7 168 -7 l62 0 -4 73 c-3 39 -9 88 -14 107 -5 19 -9 47 -9 62 0 24 -4 27 -42 32 -24 3 -94 7 -155 8 l-113 3 0 -136z"/>
<path d="M3266 2811 c-6 -9 150 -362 180 -408 17 -26 79 -32 106 -10 17 14 188 387 188 411 0 13 -11 16 -51 16 l-50 0 -26 -57 c-73 -163 -103 -223 -111 -223 -5 0 -33 53 -61 118 -71 161 -72 162 -126 162 -24 0 -46 -4 -49 -9z"/>
<path d="M4194 2806 c-13 -34 0 -51 43 -54 38 -3 43 -1 49 22 3 14 3 30 -1 35 -10 17 -85 14 -91 -3z"/>
<path d="M4377 2813 c-4 -3 -7 -96 -7 -205 l0 -199 38 -16 c22 -10 68 -16 117 -17 139 -2 200 50 200 169 0 72 -24 120 -75 150 -28 16 -50 20 -107 18 l-73 -2 0 55 0 54 -43 0 c-24 0 -47 -3 -50 -7z m226 -194 c22 -27 23 -116 2 -146 -19 -27 -77 -40 -111 -24 -23 10 -24 15 -24 95 0 83 0 85 28 95 37 14 83 5 105 -20z"/>
<path d="M4792 2603 l3 -218 45 0 45 0 5 112 c3 61 7 113 10 116 3 2 20 12 38 21 28 14 37 15 60 4 33 -16 39 -42 41 -165 l1 -93 44 0 c31 0 46 5 50 16 9 24 7 174 -3 217 -20 83 -98 122 -180 91 -25 -10 -48 -17 -51 -16 -3 1 -7 30 -10 64 l-5 63 -48 3 -47 3 2 -218z"/>
<path d="M6040 2741 c0 -84 12 -108 48 -97 16 5 20 19 24 78 3 40 3 78 1 85 -3 7 -20 13 -39 13 l-34 0 0 -79z"/>
<path d="M6794 2807 c-2 -7 -3 -105 -2 -217 l3 -205 160 -3 c179 -3 222 5 261 51 34 41 34 113 -1 152 -24 25 -25 29 -10 51 37 57 7 142 -61 170 -46 19 -342 20 -350 1z m305 -81 c7 -8 11 -27 9 -43 l-3 -28 -102 -3 -103 -3 0 39 c0 21 3 42 7 45 3 4 46 7 93 7 64 0 91 -4 99 -14z m21 -176 c14 -22 12 -66 -4 -79 -9 -8 -48 -11 -112 -9 l-99 3 -3 39 c-6 67 -4 68 108 64 76 -2 103 -7 110 -18z"/>
<path d="M7312 2603 l3 -218 45 0 45 0 0 215 0 215 -48 3 -47 3 2 -218z"/>
<path d="M3856 2706 c-51 -14 -76 -36 -76 -68 0 -15 8 -18 44 -18 26 0 48 6 56 15 18 21 83 19 103 -3 29 -32 21 -42 -33 -42 -130 0 -193 -36 -193 -111 0 -35 6 -48 31 -70 42 -38 108 -47 168 -24 34 13 48 14 59 5 7 -6 29 -10 47 -8 l33 3 3 120 c2 133 -5 158 -53 187 -42 24 -129 31 -189 14z m139 -216 c0 -29 -34 -50 -80 -50 -34 0 -55 15 -55 40 0 30 23 41 80 38 51 -3 55 -5 55 -28z"/>
<path d="M5307 2706 c-49 -13 -76 -38 -77 -68 0 -15 8 -18 43 -18 23 0 51 7 61 15 26 20 81 19 100 -1 32 -31 19 -41 -62 -47 -122 -8 -162 -36 -162 -116 0 -34 5 -44 33 -65 44 -34 109 -42 167 -22 29 10 48 12 54 6 6 -6 27 -10 48 -10 l38 0 0 128 c0 140 -6 159 -60 187 -42 21 -127 27 -183 11z m138 -216 c0 -29 -34 -50 -80 -50 -34 0 -55 15 -55 40 0 30 23 41 80 38 51 -3 55 -5 55 -28z"/>
<path d="M6247 2706 c-57 -15 -76 -38 -77 -88 0 -50 38 -81 130 -103 39 -10 78 -24 87 -33 14 -14 14 -17 -3 -29 -25 -18 -98 -17 -114 2 -8 9 -30 15 -57 15 -42 0 -44 -1 -41 -27 5 -46 57 -68 158 -68 98 0 147 21 163 68 21 63 -30 109 -148 136 -69 16 -83 26 -69 48 16 27 71 28 120 3 28 -13 51 -19 68 -14 58 14 8 79 -73 94 -67 12 -84 12 -144 -4z"/>
<path d="M7605 2711 c-88 -23 -128 -74 -128 -167 0 -111 62 -169 183 -169 73 0 118 20 154 68 30 41 30 163 0 204 -38 52 -138 83 -209 64z m110 -86 c21 -20 25 -34 25 -80 0 -69 -29 -105 -84 -105 -50 0 -76 36 -76 105 0 69 26 105 76 105 24 0 43 -8 59 -25z"/>
<path d="M8002 2706 c-53 -17 -80 -41 -98 -83 -30 -70 -8 -155 49 -197 23 -17 44 -21 105 -21 85 -1 102 -15 63 -54 -27 -27 -72 -27 -126 0 -76 38 -127 2 -71 -50 30 -28 121 -42 196 -30 40 6 62 16 85 39 l30 30 0 173 0 172 -36 12 c-62 20 -150 24 -197 9z m112 -66 c25 -9 26 -14 26 -79 0 -77 -10 -91 -67 -91 -52 0 -73 24 -73 85 0 46 4 56 26 74 30 23 50 26 88 11z"/>
<path d="M4194 2697 c-2 -7 -3 -80 -2 -162 l3 -150 45 0 45 0 3 154 c2 117 -1 156 -10 163 -20 12 -78 9 -84 -5z"/>
<path d="M5615 2700 c-6 -10 99 -248 131 -298 13 -20 22 -23 62 -20 45 3 48 5 72 53 66 129 121 256 115 265 -3 6 -24 10 -45 10 -46 0 -52 -7 -101 -122 -18 -43 -38 -78 -44 -78 -7 0 -29 39 -49 88 -21 48 -43 93 -48 100 -12 14 -84 16 -93 2z"/>
<path d="M2370 2471 l-65 -6 -3 -67 -3 -68 48 0 c48 -1 49 -2 158 -110 102 -102 112 -110 148 -110 36 0 39 2 34 23 -4 12 -11 85 -18 162 -16 198 -7 185 -131 183 -57 -1 -132 -4 -168 -7z"/>
<path d="M2704 2448 c3 -18 13 -100 21 -182 9 -83 18 -153 21 -158 7 -11 116 -10 134 2 12 8 10 10 -11 10 -53 0 -61 16 -78 168 -10 98 -12 145 -5 152 6 6 35 13 65 17 102 11 86 22 -34 23 l-118 0 5 -32z"/>
<path d="M2300 2170 l0 -60 88 0 87 1 -65 59 c-39 37 -73 60 -87 60 -21 0 -23 -4 -23 -60z"/>
<path d="M5920 2084 c0 -8 5 -12 10 -9 6 4 8 11 5 16 -9 14 -15 11 -15 -7z"/>
<path d="M2358 2003 l-58 -4 0 -41 0 -41 200 5 c110 2 201 6 203 9 2 2 2 21 -1 42 l-4 37 -142 -2 c-77 -1 -167 -3 -198 -5z"/>
<path d="M6983 1993 c20 -2 54 -2 75 0 20 2 3 4 -38 4 -41 0 -58 -2 -37 -4z"/>
<path d="M7598 1993 c28 -2 76 -2 105 0 28 2 5 3 -53 3 -58 0 -81 -1 -52 -3z"/>
<path d="M7897 1993 c18 -2 50 -2 70 0 21 2 7 4 -32 4 -38 0 -55 -2 -38 -4z"/>
<path d="M8447 1993 c18 -2 50 -2 70 0 21 2 7 4 -32 4 -38 0 -55 -2 -38 -4z"/>
<path d="M6095 1890 c3 -5 8 -10 11 -10 2 0 4 5 4 10 0 6 -5 10 -11 10 -5 0 -7 -4 -4 -10z"/>
<path d="M4798 1863 c7 -3 16 -2 19 1 4 3 -2 6 -13 5 -11 0 -14 -3 -6 -6z"/>
<path d="M6958 1863 c7 -3 16 -2 19 1 4 3 -2 6 -13 5 -11 0 -14 -3 -6 -6z"/>
<path d="M7878 1863 c7 -3 16 -2 19 1 4 3 -2 6 -13 5 -11 0 -14 -3 -6 -6z"/>
</g>
</svg>